<svg xmlns="http://www.w3.org/2000/svg" data-name="Layer 1" viewBox="0 0 144.97461 35.75977">
  <title>
    NEWS
  </title>
  <path fill="#61b4e4" d="M0 34.36816h5.32813V1.53613H0V.86426h10.27246l16.22363 26.16015h.0957V1.53613h-5.32714V.86426h11.376v.67187H27.3125v34.17575h-.96L6.14453 3.50388h-.09668v30.86428H11.376v.67188H0v-.67188zm35.08789 0H40.415V1.53613h-5.32711V.86426h27.45606v8.30371h-.52832a24.18045 24.18045 0 0 0-1.34375-3.28809 9.07347 9.07347 0 0 0-1.72852-2.39941 6.34941 6.34941 0 0 0-2.39941-1.46484 10.3879 10.3879 0 0 0-3.36035-.47949h-7.96778v14.832h3.12012a10.77708 10.77708 0 0 0 2.6875-.28809 4.09985 4.09985 0 0 0 1.89648-1.08008 6.41638 6.41638 0 0 0 1.34375-2.16009 26.6906 26.6906 0 0 0 1.08008-3.52734h.52734v14.92769h-.52734q-.33691-1.3916-.69629-2.68848a8.40106 8.40106 0 0 0-1.00781-2.30371 4.78656 4.78656 0 0 0-1.72852-1.6084 5.759 5.759 0 0 0-2.80762-.59961h-3.8877v17.32813h9.07129a7.96626 7.96626 0 0 0 4.39258-1.12793 10.2159 10.2159 0 0 0 2.85547-2.68848A11.6036 11.6036 0 0 0 63.167 27.3125a17.05794 17.05794 0 0 0 .67285-2.78418h.52734v10.51172h-29.2793v-.67188zM65.959.86426h14.44823v.67187H75.415l9.88867 27.83984h.0957l6.38383-17.71191-3.64746-10.12793h-4.03222V.86426h14.40039v.67187h-5.23243l9.8877 27.83984h.09668l10.08008-27.83984h-5.13672V.86426h10.27246v.67187h-4.32031l-12.43164 34.22363h-1.2002l-8.25586-23.04H92.167l-8.35156 23.04h-1.2959L70.2793 1.53613H65.959V.86426zm54.63084 23.85546h.52832a19.2376 19.2376 0 0 0 1.36816 4.36816 12.59177 12.59177 0 0 0 1.84766 2.92773 8.1767 8.1767 0 0 0 2.1123 1.77637 9.1087 9.1087 0 0 0 2.23242.91211 10.65738 10.65738 0 0 0 2.15918.33594q1.03271.04688 1.94434.04785a9.83944 9.83944 0 0 0 4.17578-.76758 7.26333 7.26333 0 0 0 2.5918-1.94434 6.98079 6.98079 0 0 0 1.34473-2.54395 9.3825 9.3825 0 0 0 .38379-2.51953 6.18949 6.18949 0 0 0-.624-2.88086 6.948 6.948 0 0 0-1.584-2.04 8.96011 8.96011 0 0 0-2.08789-1.36719 14.397 14.397 0 0 0-2.13574-.81641l-5.52051-1.67969a14.21125 14.21125 0 0 1-5.87988-3.168 7.08832 7.08832 0 0 1-1.99219-5.28027 10.32654 10.32654 0 0 1 .76855-4.00781 9.3873 9.3873 0 0 1 2.15918-3.19237 10.08 10.08 0 0 1 3.33593-2.1123 12.75346 12.75346 0 0 1 7.05664-.4795 12.57854 12.57854 0 0 1 1.94336.64844q.81592.35889 1.46484.64746a3.20969 3.20969 0 0 0 1.31934.28809 1.45966 1.45966 0 0 0 .83984-.168 3.212 3.212 0 0 0 .60059-.83984h.67188v8.6875h-.57617a14.31132 14.31132 0 0 0-.9834-3.33594 10.32812 10.32812 0 0 0-1.80078-2.832 8.442 8.442 0 0 0-2.66406-1.96777 8.32892 8.32892 0 0 0-3.624-.74414 11.71563 11.71563 0 0 0-2.54395.3125 8.03622 8.03622 0 0 0-2.5918 1.08008 6.47868 6.47868 0 0 0-1.99219 2.01563 5.82132 5.82132 0 0 0-.792 3.168 5.14911 5.14911 0 0 0 .624 2.61621 6.07065 6.07065 0 0 0 1.6084 1.82422 9.88 9.88 0 0 0 2.208 1.248q1.22314.50391 2.47168.8877l5.80859 1.82422q.91113.28711 2.30371.76758a10.3595 10.3595 0 0 1 2.71191 1.44043 8.31215 8.31215 0 0 1 2.25586 2.54395 7.82916 7.82916 0 0 1 .93652 4.03125 11.18409 11.18409 0 0 1-.84082 4.29688 10.72854 10.72854 0 0 1-2.42376 3.59959 11.89263 11.89263 0 0 1-3.83984 2.49609 13.1675 13.1675 0 0 1-5.08789.93555q-1.00781 0-1.77637-.02344a13.35278 13.35278 0 0 1-1.43945-.12012q-.67236-.09668-1.34375-.21582a14.28647 14.28647 0 0 1-1.48828-.36035q-.96094-.28857-2.06445-.67187a5.98434 5.98434 0 0 0-1.91992-.38379 1.30936 1.30936 0 0 0-.9834.28809 2.46477 2.46477 0 0 0-.45605.76758h-.7207V24.71972z"/>
</svg>